<?xml version="1.0" encoding="utf-8"?>
<!-- Generator: Adobe Illustrator 25.2.0, SVG Export Plug-In . SVG Version: 6.00 Build 0)  -->
<svg version="1.1" id="Layer_1" xmlns="http://www.w3.org/2000/svg" xmlns:xlink="http://www.w3.org/1999/xlink" x="0px" y="0px"
	 viewBox="0 0 800 600" style="enable-background:new 0 0 800 600;" xml:space="preserve">
<style type="text/css">
	.st0{fill:#D3F1F9;}
</style>
<path class="st0" d="M625,234"/>
<path class="st0" d="M322,440c-11.33,8.15-140.95,8.44-150-44c-5.8-33.59,39.23-81.03,83-87c25.08-3.42,43.23,7.66,54-4
	c11.38-12.32,4.4-39.07-4-55c-11.81-22.39-23.91-18.66-38-42c-16.09-26.66-13.8-53.87-13-62c1.09-11.12,2.51-23.77,12-35
	c8.79-10.4,19.85-14.08,29-17c0,0,24.73-7.89,52-2c31.6,6.82,75.96,32.7,83,74c5.76,33.77-15.66,64.95-26,80
	c-10.28,14.96-16.9,18.53-34,44c-17.51,26.08-20.54,37.2-21,47c-0.41,8.64,4.02,10.73,10,37c1.29,5.67,2.94,13.46,0,22
	c-0.66,1.91-2.44,4.94-6,11c-5.69,9.68-8.61,14.6-12,18c-2.06,2.06-5.04,4.38-11,9C330,434,325.63,437.39,322,440z"/>
<path class="st0" d="M518.57,248.25c-2.57,1.56-6.06,3.87-9.87,7.08c-15.66,13.21-22.78,29.94-25.13,37.92
	c-8.96,30.39,11.81,67.62,39,87c2.07,1.47,47.63,32.9,89,11c32.32-17.11,47.82-59.22,38-71c-3.98-4.78-17.99-6.18-46-9
	c-4.47-0.45-11.78-1.1-19-6c-2.18-1.48-9.06-6.29-12-15c-2.08-6.17-1.05-11.78,1-23c2.08-11.35,3.8-12.55,4-20
	c0.18-6.75,0.36-13.53-4-18c-5.64-5.79-15.5-4.2-23-3c-2.16,0.35-13.2,2.27-24,11c-3.6,2.91-6.22,5.8-8,8"/>
</svg>
