<?xml version="1.0" encoding="utf-8"?>
<!-- Generator: Adobe Illustrator 25.2.0, SVG Export Plug-In . SVG Version: 6.00 Build 0)  -->
<svg version="1.1" id="Layer_1" xmlns="http://www.w3.org/2000/svg" xmlns:xlink="http://www.w3.org/1999/xlink" x="0px" y="0px"
	 viewBox="0 0 1000 1000" style="enable-background:new 0 0 1000 1000;" xml:space="preserve">
<style type="text/css">
	.st0{fill:#FBB600;}
	.st1{opacity:0.28;fill:#1F3969;stroke:#1F3969;stroke-width:4;stroke-linecap:round;stroke-linejoin:round;stroke-miterlimit:10;}
	.st2{display:none;fill:#DCE2E1;}
	.st3{display:none;}
	.st4{display:inline;}
	.st5{fill:#444E59;}
	.st6{fill:#BCBCBC;}
	.st7{fill:none;stroke:#444E59;stroke-width:4;stroke-linecap:round;stroke-linejoin:round;stroke-miterlimit:10;}
	.st8{fill:none;stroke:#FFFFFF;stroke-width:4;stroke-linecap:round;stroke-linejoin:round;stroke-miterlimit:10;}
	.st9{fill:none;stroke:#64BDFF;stroke-width:4;stroke-linecap:round;stroke-linejoin:round;stroke-miterlimit:10;}
	.st10{fill:none;stroke:#FF5F5F;stroke-width:4;stroke-linecap:round;stroke-linejoin:round;stroke-miterlimit:10;}
	.st11{fill:none;stroke:#FFBE78;stroke-width:4;stroke-linecap:round;stroke-linejoin:round;stroke-miterlimit:10;}
	.st12{fill:none;stroke:#C383F2;stroke-width:4;stroke-linecap:round;stroke-linejoin:round;stroke-miterlimit:10;}
	.st13{fill:none;stroke:#6DBF7B;stroke-width:4;stroke-linecap:round;stroke-linejoin:round;stroke-miterlimit:10;}
	.st14{fill:#E7534E;}
	.st15{display:inline;fill:#444E59;}
	.st16{display:none;fill:#C9C9C9;}
	.st17{display:inline;fill:#CECECE;}
	.st18{display:inline;fill:#FFFFFF;}
	.st19{display:inline;fill:none;stroke:#1F3969;stroke-width:4;stroke-linecap:round;stroke-linejoin:round;stroke-miterlimit:10;}
	.st20{display:inline;fill:#FF3E3E;}
	
		.st21{display:inline;opacity:0.28;fill:#1F3969;stroke:#1F3969;stroke-width:4;stroke-linecap:round;stroke-linejoin:round;stroke-miterlimit:10;}
	.st22{display:inline;fill:#50B56F;}
	.st23{fill:#FFFFFF;}
	
		.st24{display:none;opacity:0.28;fill:#1F3969;stroke:#1F3969;stroke-width:4;stroke-linecap:round;stroke-linejoin:round;stroke-miterlimit:10;}
	.st25{display:none;fill:#CECECE;}
	.st26{display:none;fill:#5F5AFF;}
	.st27{display:none;fill:none;stroke:#1F3969;stroke-width:4;stroke-linecap:round;stroke-linejoin:round;stroke-miterlimit:10;}
	.st28{display:none;fill:#F6F9FD;}
	.st29{display:none;fill:#BFCFE2;}
	.st30{display:none;fill:#FFFFFF;}
	.st31{fill:none;stroke:#1F3969;stroke-width:4;stroke-linecap:round;stroke-linejoin:round;stroke-miterlimit:10;}
	.st32{fill:#2D425E;}
	.st33{fill:#D0DDF0;}
	.st34{display:inline;fill:#2AA1FF;}
	
		.st35{display:inline;opacity:0.34;fill:none;stroke:#FFFFFF;stroke-width:2;stroke-linecap:round;stroke-linejoin:round;stroke-miterlimit:10;}
	.st36{display:inline;opacity:0.34;}
	.st37{fill:none;stroke:#FFFFFF;stroke-width:2;stroke-linecap:round;stroke-linejoin:round;stroke-miterlimit:10;}
	.st38{fill:#1F3969;}
	.st39{fill:none;stroke:#7BFFA0;stroke-width:4;stroke-linecap:round;stroke-linejoin:round;stroke-miterlimit:10;}
	.st40{fill:none;stroke:#9169FF;stroke-width:4;stroke-linecap:round;stroke-linejoin:round;stroke-miterlimit:10;}
	.st41{fill:none;stroke:#FFC47D;stroke-width:4;stroke-linecap:round;stroke-linejoin:round;stroke-miterlimit:10;}
	.st42{fill:none;stroke:#FF5757;stroke-width:4;stroke-linecap:round;stroke-linejoin:round;stroke-miterlimit:10;}
	.st43{fill:#FFA364;}
	.st44{fill:#2AA1FF;}
	.st45{fill:#FF5252;}
	.st46{display:inline;fill:#6567C3;}
	.st47{opacity:0.3;}
	.st48{fill:#2D2D2D;stroke:#2D2D2D;stroke-width:8;stroke-linecap:round;stroke-linejoin:round;stroke-miterlimit:10;}
	.st49{fill:none;stroke:#330E00;stroke-width:8;stroke-linecap:round;stroke-linejoin:round;stroke-miterlimit:10;}
	.st50{fill:#8C6239;}
	.st51{fill:#42210B;}
	.st52{fill:#603813;}
	.st53{opacity:0.3;fill:#2D2D2D;stroke:#2D2D2D;stroke-width:8;stroke-linecap:round;stroke-linejoin:round;stroke-miterlimit:10;}
	.st54{fill:#BD3F3A;}
	.st55{fill:#A33500;}
	.st56{fill:#6D2300;}
	.st57{fill:#FF9999;}
	.st58{fill:#FF0000;}
	.st59{fill:#FF3333;stroke:#330E00;stroke-width:8;stroke-linecap:round;stroke-linejoin:round;stroke-miterlimit:10;}
	.st60{fill:#BF0000;}
	.st61{fill:#330E00;}
	.st62{fill:#00B3C6;}
	.st63{opacity:0.5;fill:#00B3C6;}
	.st64{opacity:0.35;fill:#00B3C6;}
	.st65{fill:#565656;}
	.st66{opacity:0.27;fill:#565656;}
	.st67{fill:#FF1F1F;}
	.st68{fill:#FDD2A7;}
	.st69{opacity:0.5;fill:#FDD2A7;}
	.st70{fill:#3BABFF;}
	.st71{fill:none;stroke:#330E00;stroke-width:6;stroke-linecap:round;stroke-linejoin:round;stroke-miterlimit:10;}
</style>
<path id="XMLID_187_" class="st0" d="M551.9,150.1c-130.6,23.7-240.5,141-221.2,198.8c12.9,38.7,77,30.7,90.5,76
	c12.4,41.8-36.7,67-46.5,133.8c-7.8,53.5,12.5,114.2,44.3,145c107.9,104.6,447.7-38.1,458.9-172.3c1.8-21.7-2.9-67.7-32.6-101.3
	c-31.6-35.8-62-24.3-84.1-53.2c-38.4-50,27.4-117.2-1.7-174C729.5,144.5,620.2,137.7,551.9,150.1z"/>
<path id="XMLID_3_" class="st0" d="M786.6,279.6c-42.8,34.7,6.6,95.6,30.7,95.6C841.5,375.2,848.2,229.7,786.6,279.6z"/>
<path id="XMLID_215_" class="st1" d="M253,184.4l0.4,130.3c0,4.2,3.7,7.5,8.3,7.5l196.4-0.7c4.6,0,8.3-3.4,8.3-7.5L466,183.7
	L253,184.4z"/>
<path id="XMLID_2_" class="st1" d="M547.4,731.9l0.3,85.4c0,2.7,2.5,4.9,5.5,4.9l128.8-0.4c3,0,5.4-2.2,5.4-4.9l-0.3-85.4
	L547.4,731.9z"/>
<rect id="XMLID_272_" x="0" class="st2" width="1000" height="1000"/>
<g class="st3">
	<g class="st4">
		<g>
			<path class="st5" d="M63.2,959.2c0,2.5-1.2,3.7-2.6,3.7c-1.1,0-1.9-0.5-2.1-1.4c-0.4,0.5-1,0.8-1.8,0.8c-1.5,0-2.6-1.2-2.6-2.8
				c0-1.6,1.1-2.8,2.6-2.8c0.7,0,1.2,0.3,1.6,0.7v-0.5h1.6v3.9c0,0.8,0.3,1.4,1,1.4c0.9,0,1.7-0.9,1.7-3c0-3-2.3-5.3-5.4-5.3
				c-3.1,0-5.6,2.4-5.6,5.7c0,3.3,2.5,5.7,5.9,5.7c1.1,0,2.1-0.2,2.9-0.4v0.6c-0.8,0.3-1.7,0.4-2.9,0.4c-3.7,0-6.5-2.6-6.5-6.2
				c0-3.4,2.7-6.2,6.2-6.2C61.1,953.3,63.2,956.4,63.2,959.2z M58.3,959.5c0-0.8-0.6-1.4-1.3-1.4c-0.8,0-1.3,0.5-1.3,1.4
				c0,0.8,0.6,1.3,1.3,1.3C57.8,960.9,58.3,960.3,58.3,959.5z"/>
		</g>
		<g>
			<path class="st5" d="M69.4,955.1v2c-1.2-0.1-2.6,0.5-2.6,2.4v4.3h-1.9v-8.6h1.9v1.4C67.3,955.5,68.3,955.1,69.4,955.1z"/>
		</g>
		<g>
			<path class="st5" d="M74.6,962.3c1,0,1.8-0.5,2.2-1.1l1.5,0.9c-0.8,1.2-2.1,1.9-3.8,1.9c-2.8,0-4.7-1.9-4.7-4.5
				c0-2.5,1.8-4.5,4.5-4.5c2.6,0,4.3,2.1,4.3,4.5c0,0.3,0,0.5-0.1,0.8h-6.8C72.1,961.6,73.2,962.3,74.6,962.3z M76.9,958.8
				c-0.3-1.5-1.3-2.1-2.5-2.1c-1.4,0-2.3,0.8-2.6,2.1H76.9z"/>
		</g>
		<g>
			<path class="st5" d="M88.9,955.2v8.6h-1.9v-1.2c-0.7,0.9-1.7,1.5-3,1.5c-2.3,0-4.3-2-4.3-4.5c0-2.6,1.9-4.5,4.3-4.5
				c1.3,0,2.3,0.5,3,1.4v-1.2H88.9z M87.1,959.5c0-1.6-1.2-2.7-2.7-2.7c-1.5,0-2.7,1.1-2.7,2.7c0,1.6,1.2,2.7,2.7,2.7
				C85.9,962.3,87.1,961.1,87.1,959.5z"/>
		</g>
		<g>
			<path class="st5" d="M91.1,951.3H93v12.5h-1.9V951.3z"/>
		</g>
		<g>
			<path class="st5" d="M102.9,955.2l-3.3,8.6h-2.1l-3.3-8.6h2l2.4,6.5l2.4-6.5H102.9z"/>
		</g>
		<g>
			<path class="st5" d="M104.2,955.2h1.9v8.9c0,2.4-1.2,3.5-3.5,3.3v-1.8c1.1,0.1,1.7-0.3,1.7-1.5V955.2z M104,952.8
				c0-0.7,0.5-1.2,1.2-1.2c0.7,0,1.2,0.5,1.2,1.2c0,0.6-0.5,1.2-1.2,1.2C104.5,954,104,953.4,104,952.8z"/>
		</g>
		<g>
			<path class="st5" d="M116,955.2l-3.3,8.8c-0.8,2.2-2.2,3.3-4.2,3.2v-1.7c1.2,0.1,1.9-0.5,2.3-1.7l0.1-0.2l-3.6-8.4h2l2.6,6.2
				l2.2-6.2H116z"/>
		</g>
	</g>
	<g class="st4">
		<path class="st5" d="M211.9,938.7c0,2.1-1.5,3.8-3.6,3.8h-3v-7.6h3C210.4,934.9,211.9,936.6,211.9,938.7z M210.9,938.7
			c0-1.6-1.1-2.9-2.6-2.9h-2v5.7h2C209.8,941.6,210.9,940.3,210.9,938.7z"/>
		<path class="st5" d="M219.5,940.8h-3.4l-0.6,1.7h-1.1l2.8-7.6h1.1l2.8,7.6h-1.1L219.5,940.8z M219.2,939.9l-1.4-3.8l-1.4,3.8
			H219.2z"/>
		<path class="st5" d="M226.4,939.4v3.1h-1v-3.1l-2.7-4.5h1.1l2.1,3.6l2.1-3.6h1.1L226.4,939.4z"/>
		<path class="st5" d="M241.6,938.8L241.6,938.8l-2.5,3.7H238l1.8-2.7c-0.1,0-0.2,0-0.4,0c-1.5,0-2.6-1-2.6-2.6
			c0-1.5,1.1-2.6,2.6-2.6s2.6,1,2.6,2.6C242.1,937.9,241.9,938.4,241.6,938.8z M239.4,938.9c1,0,1.6-0.6,1.6-1.6s-0.7-1.6-1.6-1.6
			s-1.6,0.6-1.6,1.6C237.8,938.3,238.5,938.9,239.4,938.9z"/>
		<path class="st5" d="M250,940.3c0,1.5-1.2,2.4-2.6,2.4c-1.1,0-2.1-0.5-2.5-1.6l0.9-0.5c0.2,0.8,0.8,1.1,1.7,1.1
			c0.9,0,1.6-0.5,1.6-1.4c0-0.9-0.7-1.4-1.6-1.4h-2.2l0.3-4h4.2v0.9h-3.3l-0.1,2h1.1C248.7,937.9,250,938.7,250,940.3z"/>
	</g>
	<g class="st4">
		<path class="st5" d="M58.9,938.7c0,2.1-1.5,3.8-3.6,3.8h-3v-7.6h3C57.4,934.9,58.9,936.6,58.9,938.7z M57.9,938.7
			c0-1.6-1.1-2.9-2.6-2.9h-2v5.7h2C56.8,941.6,57.9,940.3,57.9,938.7z"/>
		<path class="st5" d="M67,941.6v1h-4.6v-7.6h4.5v1h-3.5v2.3h3.2v0.9h-3.2v2.4H67z"/>
		<path class="st5" d="M70,940.8l0.9-0.5c0.3,0.8,0.9,1.4,2,1.4c1.1,0,1.6-0.5,1.6-1.2c0-0.8-0.7-1-1.8-1.4
			c-1.2-0.4-2.4-0.8-2.4-2.2c0-1.4,1.1-2.2,2.4-2.2c1.3,0,2.2,0.7,2.6,1.7l-0.8,0.5c-0.3-0.7-0.8-1.2-1.7-1.2
			c-0.8,0-1.4,0.4-1.4,1.1c0,0.7,0.5,1,1.6,1.3c1.3,0.4,2.6,0.8,2.6,2.3c0,1.3-1.1,2.2-2.6,2.2C71.5,942.7,70.4,941.9,70,940.8z"/>
		<path class="st5" d="M80,934.9v7.6h-1v-7.6H80z"/>
		<path class="st5" d="M91.3,939.2c0,1.9-1.4,3.5-3.7,3.5c-2.4,0-4-1.8-4-4c0-2.2,1.7-4,4-4c1.4,0,2.7,0.8,3.3,1.8l-0.9,0.5
			c-0.4-0.8-1.4-1.4-2.4-1.4c-1.8,0-3,1.3-3,3c0,1.7,1.2,3,3,3c1.6,0,2.5-0.9,2.7-2h-2.8v-0.9h3.8V939.2z"/>
		<path class="st5" d="M100.6,934.9v7.6h-0.8l-3.9-5.7v5.7h-1v-7.6h0.8l3.9,5.7v-5.7H100.6z"/>
		<path class="st5" d="M109.1,941.6v1h-4.6v-7.6h4.5v1h-3.5v2.3h3.2v0.9h-3.2v2.4H109.1z"/>
		<path class="st5" d="M119.2,938.7c0,2.1-1.5,3.8-3.6,3.8h-3v-7.6h3C117.6,934.9,119.2,936.6,119.2,938.7z M118.2,938.7
			c0-1.6-1.1-2.9-2.6-2.9h-2v5.7h2C117.1,941.6,118.2,940.3,118.2,938.7z"/>
		<path class="st5" d="M133.2,940.4c0,1.2-1,2.2-2.2,2.2h-3.3v-7.6h3c1.2,0,2.1,0.9,2.1,2.1c0,0.7-0.3,1.2-0.8,1.6
			C132.7,938.9,133.2,939.5,133.2,940.4z M128.7,935.8v2.3h2c0.6,0,1.1-0.5,1.1-1.2c0-0.6-0.5-1.2-1.1-1.2H128.7z M132.2,940.3
			c0-0.7-0.5-1.2-1.2-1.2h-2.3v2.5h2.3C131.7,941.6,132.2,941,132.2,940.3z"/>
		<path class="st5" d="M139.4,939.4v3.1h-1v-3.1l-2.7-4.5h1.1l2.1,3.6l2.1-3.6h1.1L139.4,939.4z"/>
	</g>
	<g class="st4">
		<path class="st5" d="M212.7,961.8h-5.3l-0.9,2.5h-2.2l4.5-12.4h2.4l4.5,12.4h-2.2L212.7,961.8z M212,959.9l-2-5.6l-2,5.6H212z"/>
		<path class="st5" d="M225.7,956c0,2.3-1.8,4.1-4.1,4.1h-2.5v4.2h-2v-12.4h4.6C224,951.9,225.7,953.7,225.7,956z M223.7,956
			c0-1.3-0.9-2.2-2.1-2.2h-2.5v4.3h2.5C222.8,958.1,223.7,957.2,223.7,956z"/>
		<path class="st5" d="M236.2,956c0,2.3-1.8,4.1-4.1,4.1h-2.5v4.2h-2v-12.4h4.6C234.4,951.9,236.2,953.7,236.2,956z M234.1,956
			c0-1.3-0.9-2.2-2.1-2.2h-2.5v4.3h2.5C233.3,958.1,234.1,957.2,234.1,956z"/>
		<path class="st5" d="M253.2,958.1c0,3.5-2.5,6.2-5.9,6.2h-4.9v-12.4h4.9C250.7,951.9,253.2,954.6,253.2,958.1z M251.2,958.1
			c0-2.5-1.6-4.2-4-4.2h-2.8v8.5h2.8C249.6,962.3,251.2,960.5,251.2,958.1z"/>
		<path class="st5" d="M259.2,962.8c1.1,0,1.9-0.5,2.3-1.1l1.6,0.9c-0.8,1.2-2.1,1.9-3.9,1.9c-2.9,0-4.8-2-4.8-4.7
			c0-2.6,1.9-4.7,4.7-4.7c2.6,0,4.4,2.1,4.4,4.7c0,0.3,0,0.5-0.1,0.8h-7C256.7,962.1,257.8,962.8,259.2,962.8z M261.6,959.1
			c-0.3-1.5-1.4-2.2-2.5-2.2c-1.4,0-2.4,0.8-2.7,2.2H261.6z"/>
		<path class="st5" d="M272.9,955.4l-3.5,8.9h-2.2l-3.5-8.9h2.1l2.5,6.7l2.5-6.7H272.9z"/>
		<path class="st5" d="M278.1,962.8c1.1,0,1.9-0.5,2.3-1.1l1.6,0.9c-0.8,1.2-2.1,1.9-3.9,1.9c-2.9,0-4.8-2-4.8-4.7
			c0-2.6,1.9-4.7,4.7-4.7c2.6,0,4.4,2.1,4.4,4.7c0,0.3,0,0.5-0.1,0.8h-7C275.6,962.1,276.7,962.8,278.1,962.8z M280.5,959.1
			c-0.3-1.5-1.4-2.2-2.5-2.2c-1.4,0-2.4,0.8-2.7,2.2H280.5z"/>
		<path class="st5" d="M284.1,951.4h1.9v12.9h-1.9V951.4z"/>
		<path class="st5" d="M287.7,959.9c0-2.6,2.1-4.7,4.7-4.7c2.6,0,4.7,2,4.7,4.7c0,2.6-2.1,4.7-4.7,4.7
			C289.8,964.5,287.7,962.5,287.7,959.9z M295.2,959.9c0-1.6-1.2-2.8-2.8-2.8s-2.8,1.2-2.8,2.8c0,1.6,1.2,2.8,2.8,2.8
			S295.2,961.5,295.2,959.9z"/>
		<path class="st5" d="M308.2,959.9c0,2.6-2,4.7-4.4,4.7c-1.4,0-2.4-0.6-3.1-1.5v4.8h-1.9v-12.4h1.9v1.3c0.7-0.9,1.7-1.5,3.1-1.5
			C306.2,955.2,308.2,957.3,308.2,959.9z M306.3,959.9c0-1.6-1.2-2.8-2.8-2.8c-1.6,0-2.8,1.2-2.8,2.8c0,1.6,1.2,2.8,2.8,2.8
			C305.1,962.7,306.3,961.5,306.3,959.9z"/>
		<path class="st5" d="M323,958.8v5.5h-1.9v-5.4c0-1.2-0.7-1.9-1.7-1.9c-1.1,0-1.9,0.7-1.9,2.3v5h-1.9v-5.4c0-1.2-0.6-1.9-1.7-1.9
			c-1.1,0-2,0.7-2,2.3v5H310v-8.9h1.9v1.1c0.6-0.9,1.4-1.3,2.5-1.3c1.2,0,2,0.5,2.5,1.4c0.6-0.9,1.5-1.4,2.7-1.4
			C321.6,955.2,323,956.6,323,958.8z"/>
		<path class="st5" d="M329.4,962.8c1.1,0,1.9-0.5,2.3-1.1l1.6,0.9c-0.8,1.2-2.1,1.9-3.9,1.9c-2.9,0-4.8-2-4.8-4.7
			c0-2.6,1.9-4.7,4.7-4.7c2.6,0,4.4,2.1,4.4,4.7c0,0.3,0,0.5-0.1,0.8h-7C326.9,962.1,328,962.8,329.4,962.8z M331.7,959.1
			c-0.3-1.5-1.4-2.2-2.5-2.2c-1.4,0-2.4,0.8-2.7,2.2H331.7z"/>
		<path class="st5" d="M343.4,958.9v5.4h-1.9v-5.2c0-1.3-0.8-2.1-2-2.1c-1.3,0-2.2,0.7-2.2,2.5v4.7h-1.9v-8.9h1.9v1.1
			c0.6-0.9,1.5-1.4,2.7-1.4C342,955.2,343.4,956.6,343.4,958.9z"/>
		<path class="st5" d="M348.2,957.3v4.2c0,1.1,0.7,1.1,2.2,1v1.7c-2.9,0.4-4.1-0.5-4.1-2.8v-4.2h-1.6v-1.8h1.6v-1.9l1.9-0.6v2.5h2.2
			v1.8H348.2z"/>
	</g>
	<g class="st4">
		<g>
			<g>
				<path class="st5" d="M846.1,938.7c0,2.1-1.5,3.8-3.6,3.8h-3v-7.6h3C844.6,934.9,846.1,936.6,846.1,938.7z M845.2,938.7
					c0-1.6-1.1-2.9-2.6-2.9h-2v5.7h2C844.1,941.6,845.2,940.3,845.2,938.7z"/>
			</g>
			<g>
				<path class="st5" d="M849.3,938.7c0-2.2,1.7-4,3.9-4c2.2,0,4,1.8,4,4c0,2.2-1.7,4-4,4C851,942.7,849.3,940.9,849.3,938.7z
					 M856.1,938.7c0-1.7-1.3-3-2.9-3c-1.7,0-2.9,1.3-2.9,3c0,1.7,1.3,3,2.9,3C854.9,941.7,856.1,940.4,856.1,938.7z"/>
			</g>
			<g>
				<path class="st5" d="M859.8,934.9h1.1l1.7,6.3l1.9-6.3h1l1.9,6.3l1.7-6.3h1.1l-2.2,7.6h-1.2l-1.8-6.1l-1.8,6.1H862L859.8,934.9z
					"/>
			</g>
			<g>
				<path class="st5" d="M879.3,934.9v7.6h-0.8l-3.9-5.7v5.7h-1v-7.6h0.8l3.9,5.7v-5.7H879.3z"/>
			</g>
			<g>
				<path class="st5" d="M887.5,941.6v1h-4.3v-7.6h1v6.7H887.5z"/>
			</g>
			<g>
				<path class="st5" d="M889.9,938.7c0-2.2,1.7-4,3.9-4c2.2,0,4,1.8,4,4c0,2.2-1.7,4-4,4C891.6,942.7,889.9,940.9,889.9,938.7z
					 M896.8,938.7c0-1.7-1.3-3-2.9-3c-1.7,0-2.9,1.3-2.9,3c0,1.7,1.3,3,2.9,3C895.5,941.7,896.8,940.4,896.8,938.7z"/>
			</g>
			<g>
				<path class="st5" d="M905.4,940.8H902l-0.6,1.7h-1.1l2.8-7.6h1.1l2.8,7.6H906L905.4,940.8z M905.1,939.9l-1.4-3.8l-1.4,3.8
					H905.1z"/>
			</g>
			<g>
				<path class="st5" d="M916.9,938.7c0,2.1-1.5,3.8-3.6,3.8h-3v-7.6h3C915.4,934.9,916.9,936.6,916.9,938.7z M915.9,938.7
					c0-1.6-1.1-2.9-2.6-2.9h-2v5.7h2C914.9,941.6,915.9,940.3,915.9,938.7z"/>
			</g>
			<g>
				<path class="st5" d="M926.5,935.8v2.5h3.2v1h-3.2v3.2h-1v-7.6h4.4v1H926.5z"/>
			</g>
			<g>
				<path class="st5" d="M936.2,939.6h-1.8v2.9h-1v-7.6h3c1.3,0,2.4,1.1,2.4,2.4c0,1-0.7,1.9-1.6,2.2l1.8,3.1h-1.1L936.2,939.6z
					 M934.4,938.7h2c0.8,0,1.4-0.6,1.4-1.4c0-0.8-0.6-1.4-1.4-1.4h-2V938.7z"/>
			</g>
			<g>
				<path class="st5" d="M941.9,938.7c0-2.2,1.7-4,3.9-4c2.2,0,4,1.8,4,4c0,2.2-1.7,4-4,4C943.6,942.7,941.9,940.9,941.9,938.7z
					 M948.8,938.7c0-1.7-1.3-3-2.9-3c-1.7,0-2.9,1.3-2.9,3c0,1.7,1.3,3,2.9,3C947.5,941.7,948.8,940.4,948.8,938.7z"/>
			</g>
			<g>
				<path class="st5" d="M960.4,942.5h-1v-6l-2.5,4.2h-0.1l-2.5-4.1v5.9h-1v-7.6h1.1l2.4,4l2.4-4h1.1V942.5z"/>
			</g>
		</g>
		<g>
			<g>
				<path class="st5" d="M839.3,952.9c0-0.7,0.5-1.2,1.2-1.2c0.7,0,1.2,0.5,1.2,1.2c0,0.7-0.5,1.2-1.2,1.2
					C839.9,954.1,839.3,953.6,839.3,952.9z M839.6,955.4h1.9v8.9h-1.9V955.4z"/>
			</g>
			<g>
				<path class="st5" d="M843.7,951.4h1.9v12.9h-1.9V951.4z"/>
			</g>
			<g>
				<path class="st5" d="M847.8,951.4h1.9v12.9h-1.9V951.4z"/>
			</g>
			<g>
				<path class="st5" d="M852,951.4h1.9v12.9H852V951.4z"/>
			</g>
			<g>
				<path class="st5" d="M864,955.4v8.9h-1.9v-1.1c-0.6,0.9-1.5,1.4-2.7,1.4c-2,0-3.4-1.3-3.4-3.6v-5.4h1.9v5.2c0,1.3,0.8,2.1,2,2.1
					c1.3,0,2.2-0.7,2.2-2.5v-4.7H864z"/>
			</g>
			<g>
				<path class="st5" d="M872.6,961.8c0,1.8-1.5,2.7-3.5,2.7c-1.8,0-3-0.8-3.6-2.1l1.6-1c0.3,0.8,1,1.3,2,1.3c0.8,0,1.5-0.3,1.5-1
					c0-1.6-4.8-0.7-4.8-3.9c0-1.7,1.4-2.7,3.2-2.7c1.5,0,2.7,0.7,3.3,1.8l-1.6,0.9c-0.3-0.7-0.9-1-1.7-1c-0.7,0-1.3,0.3-1.3,0.9
					C867.9,959.5,872.6,958.5,872.6,961.8z"/>
			</g>
			<g>
				<path class="st5" d="M876.7,957.3v4.2c0,1.1,0.7,1.1,2.2,1v1.7c-2.9,0.4-4.1-0.5-4.1-2.8v-4.2h-1.6v-1.8h1.6v-1.9l1.9-0.6v2.5
					h2.2v1.8H876.7z"/>
			</g>
			<g>
				<path class="st5" d="M885.4,955.3v2.1c-1.3-0.1-2.7,0.5-2.7,2.5v4.5h-1.9v-8.9h1.9v1.5C883.2,955.7,884.2,955.3,885.4,955.3z"/>
			</g>
			<g>
				<path class="st5" d="M895.3,955.4v8.9h-1.9V963c-0.7,0.9-1.7,1.5-3.1,1.5c-2.4,0-4.4-2-4.4-4.7c0-2.6,2-4.7,4.4-4.7
					c1.4,0,2.4,0.6,3.1,1.5v-1.3H895.3z M893.4,959.9c0-1.6-1.2-2.8-2.8-2.8c-1.6,0-2.8,1.2-2.8,2.8c0,1.6,1.2,2.8,2.8,2.8
					C892.2,962.7,893.4,961.5,893.4,959.9z"/>
			</g>
			<g>
				<path class="st5" d="M900.3,957.3v4.2c0,1.1,0.7,1.1,2.2,1v1.7c-2.9,0.4-4.1-0.5-4.1-2.8v-4.2h-1.6v-1.8h1.6v-1.9l1.9-0.6v2.5
					h2.2v1.8H900.3z"/>
			</g>
			<g>
				<path class="st5" d="M903.9,952.9c0-0.7,0.5-1.2,1.2-1.2c0.7,0,1.2,0.5,1.2,1.2c0,0.7-0.5,1.2-1.2,1.2
					C904.5,954.1,903.9,953.6,903.9,952.9z M904.2,955.4h1.9v8.9h-1.9V955.4z"/>
			</g>
			<g>
				<path class="st5" d="M907.8,959.9c0-2.6,2.1-4.7,4.7-4.7c2.6,0,4.7,2,4.7,4.7c0,2.6-2.1,4.7-4.7,4.7
					C909.9,964.5,907.8,962.5,907.8,959.9z M915.3,959.9c0-1.6-1.2-2.8-2.8-2.8c-1.6,0-2.8,1.2-2.8,2.8c0,1.6,1.2,2.8,2.8,2.8
					C914.1,962.7,915.3,961.5,915.3,959.9z"/>
			</g>
			<g>
				<path class="st5" d="M927,958.9v5.4h-1.9v-5.2c0-1.3-0.8-2.1-2-2.1c-1.3,0-2.2,0.7-2.2,2.5v4.7h-1.9v-8.9h1.9v1.1
					c0.6-0.9,1.5-1.4,2.7-1.4C925.5,955.2,927,956.6,927,958.9z"/>
			</g>
			<g>
				<path class="st5" d="M935.5,961.8c0,1.8-1.5,2.7-3.5,2.7c-1.8,0-3-0.8-3.6-2.1l1.6-1c0.3,0.8,1,1.3,2,1.3c0.8,0,1.5-0.3,1.5-1
					c0-1.6-4.8-0.7-4.8-3.9c0-1.7,1.4-2.7,3.2-2.7c1.5,0,2.7,0.7,3.3,1.8l-1.6,0.9c-0.3-0.7-0.9-1-1.7-1c-0.7,0-1.3,0.3-1.3,0.9
					C930.7,959.5,935.5,958.5,935.5,961.8z"/>
			</g>
			<g>
				<path class="st5" d="M936.8,963.2c0-0.7,0.6-1.3,1.3-1.3c0.7,0,1.3,0.6,1.3,1.3c0,0.7-0.6,1.3-1.3,1.3
					C937.4,964.5,936.8,963.9,936.8,963.2z"/>
			</g>
			<g>
				<path class="st5" d="M940.3,959.9c0-2.6,2-4.7,4.7-4.7c1.7,0,3.2,0.9,3.9,2.3l-1.6,1c-0.4-0.8-1.3-1.4-2.3-1.4
					c-1.6,0-2.7,1.2-2.7,2.8c0,1.6,1.2,2.8,2.7,2.8c1.1,0,1.9-0.5,2.4-1.4l1.6,0.9c-0.7,1.4-2.2,2.3-4,2.3
					C942.3,964.5,940.3,962.5,940.3,959.9z"/>
			</g>
			<g>
				<path class="st5" d="M949.7,959.9c0-2.6,2.1-4.7,4.7-4.7c2.6,0,4.7,2,4.7,4.7c0,2.6-2.1,4.7-4.7,4.7
					C951.8,964.5,949.7,962.5,949.7,959.9z M957.2,959.9c0-1.6-1.2-2.8-2.8-2.8s-2.8,1.2-2.8,2.8c0,1.6,1.2,2.8,2.8,2.8
					S957.2,961.5,957.2,959.9z"/>
			</g>
		</g>
	</g>
</g>
<g id="XMLID_238_">
	<g id="XMLID_190_">
		<path id="XMLID_183_" class="st5" d="M684.6,814.7H560.9c-4.1,0-7.4-3.3-7.4-7.4v-84.6c0-4.1,3.3-7.4,7.4-7.4h123.8
			c4.1,0,7.4,3.3,7.4,7.4v84.6C692,811.5,688.7,814.7,684.6,814.7z"/>
		<path id="XMLID_134_" class="st6" d="M692,731.5H553.5v-8.7c0-4.1,3.3-7.4,7.4-7.4h123.8c4.1,0,7.4,3.3,7.4,7.4V731.5z"/>
		<path id="XMLID_132_" class="st7" d="M684.6,814.7H560.9c-4.1,0-7.4-3.3-7.4-7.4v-84.6c0-4.1,3.3-7.4,7.4-7.4h123.8
			c4.1,0,7.4,3.3,7.4,7.4v84.6C692,811.5,688.7,814.7,684.6,814.7z"/>
		<path id="XMLID_182_" class="st7" d="M684.6,814.7H560.9c-4.1,0-7.4-3.3-7.4-7.4v-84.6c0-4.1,3.3-7.4,7.4-7.4h123.8
			c4.1,0,7.4,3.3,7.4,7.4v84.6C692,811.5,688.7,814.7,684.6,814.7z"/>
		<path id="XMLID_133_" class="st7" d="M692,731.5H553.5v-8.7c0-4.1,3.3-7.4,7.4-7.4h123.8c4.1,0,7.4,3.3,7.4,7.4V731.5z"/>
		<g id="XMLID_135_">
			<g id="XMLID_169_">
				<line id="XMLID_172_" class="st8" x1="572.7" y1="802.1" x2="588.2" y2="802.1"/>
				<line id="XMLID_171_" class="st8" x1="561.6" y1="802.1" x2="562.7" y2="802.1"/>
			</g>
			<g id="XMLID_165_">
				<line id="XMLID_168_" class="st8" x1="572.7" y1="793.4" x2="612.1" y2="793.4"/>
				<line id="XMLID_167_" class="st8" x1="561.6" y1="793.4" x2="562.7" y2="793.4"/>
			</g>
			<g id="XMLID_160_">
				<line id="XMLID_163_" class="st9" x1="630.9" y1="784.8" x2="641.7" y2="784.8"/>
				<line id="XMLID_185_" class="st8" x1="601.5" y1="784.8" x2="621.5" y2="784.8"/>
				<line id="XMLID_164_" class="st10" x1="572.7" y1="784.8" x2="592.4" y2="784.8"/>
				<line id="XMLID_162_" class="st8" x1="561.6" y1="784.8" x2="562.7" y2="784.8"/>
			</g>
			<g id="XMLID_156_">
				<line id="XMLID_173_" class="st8" x1="606" y1="776.2" x2="654.1" y2="776.2"/>
				<line id="XMLID_159_" class="st9" x1="572.7" y1="776.2" x2="597.8" y2="776.2"/>
				<line id="XMLID_158_" class="st8" x1="561.6" y1="776.2" x2="562.7" y2="776.2"/>
			</g>
			<g id="XMLID_152_">
				<line id="XMLID_170_" class="st10" x1="606" y1="767.6" x2="624" y2="767.6"/>
				<line id="XMLID_155_" class="st11" x1="572.7" y1="767.6" x2="597.8" y2="767.6"/>
				<line id="XMLID_154_" class="st8" x1="561.6" y1="767.6" x2="562.7" y2="767.6"/>
			</g>
			<g id="XMLID_148_">
				<line id="XMLID_157_" class="st9" x1="609.5" y1="758.9" x2="614.3" y2="758.9"/>
				<line id="XMLID_161_" class="st10" x1="590.4" y1="758.9" x2="601.5" y2="758.9"/>
				<line id="XMLID_151_" class="st12" x1="572.7" y1="758.9" x2="581.8" y2="758.9"/>
				<line id="XMLID_150_" class="st8" x1="561.6" y1="758.9" x2="562.7" y2="758.9"/>
			</g>
			<g id="XMLID_144_">
				<line id="XMLID_137_" class="st9" x1="645.4" y1="750.3" x2="654.1" y2="750.3"/>
				<line id="XMLID_149_" class="st10" x1="600.3" y1="750.3" x2="634.4" y2="750.3"/>
				<line id="XMLID_147_" class="st11" x1="572.7" y1="750.3" x2="592.9" y2="750.3"/>
				<line id="XMLID_146_" class="st8" x1="561.6" y1="750.3" x2="562.7" y2="750.3"/>
			</g>
			<g id="XMLID_139_">
				<line id="XMLID_145_" class="st11" x1="624" y1="741.7" x2="641.7" y2="741.7"/>
				<line id="XMLID_138_" class="st13" x1="601.5" y1="741.7" x2="615.4" y2="741.7"/>
				<line id="XMLID_140_" class="st11" x1="586.5" y1="741.7" x2="594.3" y2="741.7"/>
				<line id="XMLID_143_" class="st13" x1="572.7" y1="741.7" x2="579" y2="741.7"/>
				<line id="XMLID_142_" class="st8" x1="561.6" y1="741.7" x2="562.7" y2="741.7"/>
			</g>
		</g>
		<g id="XMLID_153_">
			<circle id="XMLID_136_" class="st14" cx="567.2" cy="723.4" r="2.5"/>
			<circle id="XMLID_166_" class="st5" cx="576.3" cy="723.4" r="2.5"/>
			<circle id="XMLID_174_" class="st5" cx="585.3" cy="723.4" r="2.5"/>
		</g>
	</g>
</g>
<g class="st3">
	<path class="st15" d="M248.9,848.1h-14.5l-2.4,6.9h-7.7l13.1-36.5h8.5L259,855h-7.7L248.9,848.1z M241.6,827l-5.3,15.3h10.6
		L241.6,827z"/>
	<path class="st15" d="M282.5,841h-6.1v14h-7.3v-36.5h13.4c8.8,0,13.2,5,13.2,11.3C295.7,835.4,291.9,841,282.5,841z M282.2,835.1
		c4.1,0,6-2,6-5.3c0-3.3-1.8-5.3-6-5.3h-5.8v10.6H282.2z"/>
	<path class="st15" d="M319.5,841h-6.1v14h-7.3v-36.5h13.4c8.8,0,13.2,5,13.2,11.3C332.7,835.4,328.9,841,319.5,841z M319.2,835.1
		c4.1,0,6-2,6-5.3c0-3.3-1.8-5.3-6-5.3h-5.8v10.6H319.2z"/>
	<path class="st15" d="M392.7,836.8c0,11-7.6,18.2-19.2,18.2h-12.7v-36.5h12.7C385.1,818.5,392.7,825.8,392.7,836.8z M373.2,848.8
		c7.7,0,12-4.4,12-12c0-7.6-4.3-12.1-12-12.1h-5.2v24.1H373.2z"/>
	<path class="st15" d="M424.6,824.4h-13.8v9.1H423v5.8h-12.3v9.7h13.8v6h-21.2v-36.5h21.2V824.4z"/>
	<path class="st15" d="M461.4,818.5h7.8L455.8,855h-8.9l-13.4-36.5h7.8l10,29L461.4,818.5z"/>
	<path class="st15" d="M500,824.4h-13.8v9.1h12.3v5.8h-12.3v9.7H500v6h-21.2v-36.5H500V824.4z"/>
	<path class="st15" d="M519.1,818.5v30.7h12v5.8h-19.3v-36.5H519.1z"/>
	<path class="st15" d="M557.9,855.4c-10.3,0-18.7-7.7-18.7-18.7c0-10.9,8.4-18.6,18.7-18.6c10.4,0,18.6,7.7,18.6,18.6
		C576.6,847.6,568.3,855.4,557.9,855.4z M557.9,848.8c6.6,0,11.1-4.8,11.1-12.2s-4.5-12.1-11.1-12.1c-6.6,0-11.2,4.6-11.2,12.1
		S551.3,848.8,557.9,848.8z"/>
	<path class="st15" d="M600.7,841h-6.1v14h-7.3v-36.5h13.4c8.8,0,13.2,5,13.2,11.3C613.8,835.4,610.1,841,600.7,841z M600.4,835.1
		c4.1,0,6-2,6-5.3c0-3.3-1.8-5.3-6-5.3h-5.8v10.6H600.4z"/>
	<path class="st15" d="M624.2,818.5h8.3l11.6,27.1l11.6-27.1h8.3V855h-7.3v-23.7l-9.8,23.7h-5.5l-9.8-23.7V855h-7.3V818.5z"/>
	<path class="st15" d="M697.6,824.4h-13.8v9.1H696v5.8h-12.3v9.7h13.8v6h-21.2v-36.5h21.2V824.4z"/>
	<path class="st15" d="M740.6,818.5V855h-7.3l-16.6-25v25h-7.3v-36.5h7.3l16.6,25.1v-25.1H740.6z"/>
	<path class="st15" d="M751.1,818.5h26.7v5.9h-9.7V855h-7.3v-30.6h-9.7V818.5z"/>
</g>
<g id="XMLID_34_">
	<path id="XMLID_223_" class="st16" d="M625.5,670.4l-398.8-4.1c-2.5,0-4.5-2.1-4.5-4.6l0-2.4c0-2.5,2.1-4.5,4.6-4.5l398.8,4.1
		c2.5,0,4.5,2.1,4.5,4.6l0,2.4C630.1,668.4,628,670.4,625.5,670.4z"/>
	<g id="XMLID_19_">
		<g id="XMLID_199_" class="st3">
			<path id="XMLID_212_" class="st17" d="M303.1,607.6c-6.1-0.1-11-5.1-11-11.2c0.1-6.1,5.1-11,11.2-11l62.6,0.6l-0.2,22.2
				L303.1,607.6z"/>
			<path id="XMLID_209_" class="st18" d="M369.3,612.2l-69.4-0.7c-6.5-0.1-11.8-5.4-11.7-11.9l0.1-6.2c0.1-6.5,5.4-11.8,11.9-11.7
				l69.4,0.7L369.3,612.2z"/>
			<line id="XMLID_208_" class="st19" x1="299.2" y1="593.1" x2="365.9" y2="593.8"/>
			<line id="XMLID_207_" class="st19" x1="299.1" y1="599.9" x2="365.8" y2="600.5"/>
			<path id="XMLID_205_" class="st19" d="M303.1,607.6c-6.1-0.1-11-5.1-11-11.2c0.1-6.1,5.1-11,11.2-11l62.6,0.6l-0.2,22.2
				L303.1,607.6z"/>
			<path id="XMLID_203_" class="st20" d="M303.1,607.6c-6.1-0.1-11-5.1-11-11.2c0.1-6.1,5.1-11,11.2-11l63.7,0.6l2.6-3.8l-66.3-0.7
				c-8.2-0.1-15,6.5-15.1,14.8v0c-0.1,8.2,6.5,15,14.8,15.1l66.3,0.7l-2.5-3.9L303.1,607.6z"/>
			<path id="XMLID_201_" class="st19" d="M303.1,607.6c-6.1-0.1-11-5.1-11-11.2c0.1-6.1,5.1-11,11.2-11l63.7,0.6l2.6-3.8l-66.3-0.7
				c-8.2-0.1-15,6.5-15.1,14.8v0c-0.1,8.2,6.5,15,14.8,15.1l66.3,0.7l-2.5-3.9L303.1,607.6z"/>
			
				<rect id="XMLID_224_" x="343.5" y="582.1" transform="matrix(0.9999 1.019741e-02 -1.019741e-02 0.9999 6.1064 -3.5316)" class="st21" width="11.8" height="29.8"/>
		</g>
		<g id="XMLID_193_" class="st3">
			<path id="XMLID_196_" class="st22" d="M359.8,636.7l-116.5-1.2c-3.7,0-6.7-3.1-6.7-6.8l0.1-11.1c0-3.7,3.1-6.7,6.8-6.7l116.5,1.2
				c3.7,0,6.7,3.1,6.7,6.8l-0.1,11.1C366.6,633.7,363.6,636.7,359.8,636.7z"/>
			<g class="st4">
				<path class="st23" d="M273.8,624.3l-1.6,0l0,3.5l-1.1,0l0.1-8.5l2.7,0c2,0,2.9,1.1,2.9,2.5C276.7,623.1,275.9,624.3,273.8,624.3
					z M273.8,623.3c1.3,0,1.8-0.6,1.8-1.5c0-1-0.5-1.6-1.8-1.6l-1.6,0l0,3.1L273.8,623.3z"/>
				<path class="st23" d="M279.9,619.4l1.2,0l2,4.3l2.1-4.3l1.2,0l-2.8,5.3l0,3.2l-1.1,0l0-3.2L279.9,619.4z"/>
				<path class="st23" d="M289.6,619.5l5.7,0.1l0,0.9l-2.3,0L293,628l-1.1,0l0.1-7.6l-2.3,0L289.6,619.5z"/>
				<path class="st23" d="M304.5,624.3l-4.3,0l0,3.8l-1.1,0l0.1-8.5l1.1,0l0,3.7l4.3,0l0-3.7l1.1,0l-0.1,8.5l-1.1,0L304.5,624.3z"/>
				<path class="st23" d="M313.7,628.3c-2.4,0-4.2-1.8-4.2-4.4c0-2.5,1.9-4.3,4.3-4.3c2.4,0,4.2,1.8,4.2,4.4
					C318,626.5,316.1,628.3,313.7,628.3z M313.8,627.3c1.8,0,3.1-1.3,3.2-3.3c0-2.1-1.3-3.4-3.1-3.4s-3.1,1.3-3.2,3.3
					C310.6,626,312,627.3,313.8,627.3z"/>
				<path class="st23" d="M328.7,619.9l-0.1,8.5l-1.1,0l-4.4-6.8l-0.1,6.8l-1.1,0l0.1-8.5l1.1,0l4.4,6.8l0.1-6.7L328.7,619.9z"/>
			</g>
			<path id="XMLID_194_" class="st19" d="M359.8,636.7l-116.5-1.2c-3.7,0-6.7-3.1-6.7-6.8l0.1-11.1c0-3.7,3.1-6.7,6.8-6.7l116.5,1.2
				c3.7,0,6.7,3.1,6.7,6.8l-0.1,11.1C366.6,633.7,363.6,636.7,359.8,636.7z"/>
		</g>
		<path id="XMLID_246_" class="st24" d="M362.5,612.1l-19.2-0.2l-0.1,9.6c-0.1,6,4.8,11,10.8,11l12.6,0.1c0-0.1,0-0.1,0-0.2l0.2-16
			C366.8,614.1,364.9,612.1,362.5,612.1z"/>
		<path id="XMLID_191_" class="st25" d="M396.4,642l-140.5-1.4c0.8,2.1,1.3,4.6,1.2,7.3c0,2.7-0.5,5.2-1.4,7.2l140.5,1.4
			c-0.8-2.1-1.3-4.6-1.2-7.3C395,646.6,395.5,644.1,396.4,642z"/>
		
			<rect id="XMLID_131_" x="252.1" y="637.4" transform="matrix(0.9999 1.019741e-02 -1.019741e-02 0.9999 6.5369 -3.2924)" class="st26" width="148.2" height="3.9"/>
		
			<rect id="XMLID_129_" x="252.1" y="637.4" transform="matrix(0.9999 1.019741e-02 -1.019741e-02 0.9999 6.5369 -3.2924)" class="st27" width="148.2" height="3.9"/>
		
			<rect id="XMLID_127_" x="251.9" y="655.8" transform="matrix(0.9999 1.019741e-02 -1.019741e-02 0.9999 6.7242 -3.2896)" class="st28" width="148.2" height="3.9"/>
		
			<rect id="XMLID_125_" x="251.9" y="655.8" transform="matrix(0.9999 1.019741e-02 -1.019741e-02 0.9999 6.7242 -3.2896)" class="st26" width="148.2" height="3.9"/>
		
			<rect id="XMLID_123_" x="251.9" y="655.8" transform="matrix(0.9999 1.019741e-02 -1.019741e-02 0.9999 6.7242 -3.2896)" class="st27" width="148.2" height="3.9"/>
		<path id="XMLID_121_" class="st29" d="M473.8,647.5l-1.7-21.5l-31.6-0.3l-2.1,21.5c-0.5,5-3.6,9.7-8.3,13.5l0,0l51.8,0.5l0,0
			C477.1,657.4,474.2,652.5,473.8,647.5z"/>
		<polygon id="XMLID_119_" class="st24" points="440.5,625.7 439.2,638.6 473.1,638.9 472.1,626 		"/>
		<path id="XMLID_118_" class="st27" d="M473.8,647.5l-1.7-21.5l-31.6-0.3l-2.1,21.5c-0.5,5-3.6,9.7-8.3,13.5l0,0l51.8,0.5l0,0
			C477.1,657.4,474.2,652.5,473.8,647.5z"/>
		<path id="XMLID_116_" class="st30" d="M552.9,630l-193.2-2c-6.6-0.1-11.9-5.5-11.9-12.1l1.3-123c0.1-6.6,5.5-11.9,12.1-11.9
			l193.2,2c6.6,0.1,11.9,5.5,11.9,12.1l-1.3,123C564.9,624.8,559.5,630.1,552.9,630z"/>
		<path id="XMLID_114_" class="st29" d="M552.9,630l-193.2-2c-6.6-0.1-11.9-5.5-11.9-12.1l1.3-123c0.1-6.6,5.5-11.9,12.1-11.9
			l193.2,2c6.6,0.1,11.9,5.5,11.9,12.1l-1.3,123C564.9,624.8,559.5,630.1,552.9,630z"/>
		<path id="XMLID_69_" class="st27" d="M552.9,630l-193.2-2c-6.6-0.1-11.9-5.5-11.9-12.1l1.3-123c0.1-6.6,5.5-11.9,12.1-11.9
			l193.2,2c6.6,0.1,11.9,5.5,11.9,12.1l-1.3,123C564.9,624.8,559.5,630.1,552.9,630z"/>
		
			<rect id="XMLID_68_" x="401.3" y="451" transform="matrix(-1.019741e-02 0.9999 -0.9999 -1.019741e-02 1010.4584 97.2652)" class="st28" width="111.6" height="195.5"/>
		<path id="XMLID_197_" class="st1" d="M201.4,454.3l0.8,240.3c0,7.7,6.3,13.9,13.9,13.8l327.8-1.1c7.7,0,13.9-6.3,13.8-13.9
			l-0.8-240.3L201.4,454.3z"/>
		
			<rect id="XMLID_63_" x="401.3" y="451" transform="matrix(-1.019741e-02 0.9999 -0.9999 -1.019741e-02 1010.4584 97.2652)" class="st27" width="111.6" height="195.5"/>
		<line id="XMLID_39_" class="st27" x1="447.8" y1="616.6" x2="465" y2="616.8"/>
		<path id="XMLID_35_" class="st31" d="M572.5,437l-355.6,1.2l-0.1-25.7c0-4.4,3.6-8,8-8l339.6-1.1c4.4,0,8,3.6,8,8L572.5,437z"/>
		<path id="XMLID_37_" class="st32" d="M565.3,688.2l-339.6,1.1c-4.4,0-8-3.6-8-8l-0.9-268.9c0-4.4,3.6-8,8-8l339.6-1.1
			c4.4,0,8,3.6,8,8l0.9,268.9C573.3,684.5,569.8,688.1,565.3,688.2z"/>
		<path id="XMLID_33_" class="st33" d="M572.5,443.6l-355.6,1.2l-0.1-32.3c0-4.4,3.6-8,8-8l339.6-1.1c4.4,0,8,3.6,8,8L572.5,443.6z"
			/>
		<path id="XMLID_32_" class="st31" d="M572.5,443.6l-355.6,1.2l-0.1-32.3c0-4.4,3.6-8,8-8l339.6-1.1c4.4,0,8,3.6,8,8L572.5,443.6z"
			/>
		<path id="XMLID_23_" class="st31" d="M572.5,443.6l-355.6,1.2l-0.1-32.3c0-4.4,3.6-8,8-8l339.6-1.1c4.4,0,8,3.6,8,8L572.5,443.6z"
			/>
		<path id="XMLID_20_" class="st31" d="M565.3,688.2l-339.6,1.1c-4.4,0-8-3.6-8-8l-0.9-268.9c0-4.4,3.6-8,8-8l339.6-1.1
			c4.4,0,8,3.6,8,8l0.9,268.9C573.3,684.5,569.8,688.1,565.3,688.2z"/>
		<g id="XMLID_72_" class="st3">
			<path id="XMLID_18_" class="st21" d="M557.8,592.4l-68.4-0.7c-4.4,0-8-3.7-7.9-8.1l0.7-72.8c0-4.4,3.7-8,8.1-7.9l68.4,0.7
				c4.4,0,8,3.7,7.9,8.1l-0.7,72.8C565.8,588.9,562.2,592.4,557.8,592.4z"/>
			<path id="XMLID_17_" class="st34" d="M562.9,588l-68.4-0.7c-4.4,0-8-3.7-7.9-8.1l0.7-72.8c0-4.4,3.7-8,8.1-7.9l68.4,0.7
				c4.4,0,8,3.7,7.9,8.1L571,580C571,584.5,567.3,588,562.9,588z"/>
			<path id="XMLID_16_" class="st19" d="M562.9,588l-68.4-0.7c-4.4,0-8-3.7-7.9-8.1l0.7-72.8c0-4.4,3.7-8,8.1-7.9l68.4,0.7
				c4.4,0,8,3.7,7.9,8.1L571,580C571,584.5,567.3,588,562.9,588z"/>
			<path id="XMLID_75_" class="st35" d="M554.2,523.4l-49.5-0.5c-2.5,0-4.6-2.1-4.5-4.6l0-2.4c0-2.5,2.1-4.6,4.6-4.5l49.5,0.5
				c2.5,0,4.6,2.1,4.5,4.6l0,2.4C558.8,521.4,556.7,523.4,554.2,523.4z"/>
			<g id="XMLID_15_" class="st36">
				<path id="XMLID_78_" class="st37" d="M531.1,541.9l-26.6-0.3c-2.5,0-4.6-2.1-4.5-4.6l0-2.4c0-2.5,2.1-4.6,4.6-4.5l26.6,0.3
					c2.5,0,4.6,2.1,4.5,4.6l0,2.4C535.7,539.9,533.6,541.9,531.1,541.9z"/>
				<path id="XMLID_79_" class="st37" d="M554,542.1l-8.7-0.1c-2.5,0-4.6-2.1-4.5-4.6l0-2.4c0-2.5,2.1-4.6,4.6-4.5l8.7,0.1
					c2.5,0,4.6,2.1,4.5,4.6l0,2.4C558.6,540.1,556.6,542.2,554,542.1z"/>
			</g>
			<g id="XMLID_76_" class="st4">
				<line id="XMLID_14_" class="st37" x1="499.6" y1="561" x2="558.4" y2="561.6"/>
				<line id="XMLID_13_" class="st37" x1="499.6" y1="567.9" x2="558.3" y2="568.5"/>
				<line id="XMLID_12_" class="st37" x1="499.5" y1="574.8" x2="535.3" y2="575.2"/>
			</g>
		</g>
		<circle id="XMLID_24_" class="st38" cx="251.7" cy="424.5" r="6.9"/>
		<circle id="XMLID_28_" class="st38" cx="275.8" cy="424.4" r="6.9"/>
		<circle id="XMLID_38_" class="st38" cx="299.8" cy="424.3" r="6.9"/>
		<g id="XMLID_61_">
			<line id="XMLID_54_" class="st8" x1="421.3" y1="476.1" x2="443.7" y2="476"/>
			<line id="XMLID_66_" class="st39" x1="306.9" y1="476.5" x2="404.7" y2="476.2"/>
			<line id="XMLID_29_" class="st40" x1="258.8" y1="476.7" x2="293.1" y2="476.5"/>
		</g>
		<g id="XMLID_42_">
			<line id="XMLID_62_" class="st40" x1="304" y1="647.4" x2="378.7" y2="647.2"/>
			<line id="XMLID_30_" class="st39" x1="259.4" y1="647.6" x2="283.4" y2="647.5"/>
		</g>
		<g id="XMLID_27_">
			<line id="XMLID_60_" class="st8" x1="404.8" y1="497.5" x2="418.7" y2="497.5"/>
			<line id="XMLID_45_" class="st40" x1="340.8" y1="497.8" x2="388" y2="497.6"/>
			<line id="XMLID_47_" class="st41" x1="276" y1="498" x2="324.1" y2="497.8"/>
		</g>
		<g id="XMLID_49_">
			<line id="XMLID_59_" class="st8" x1="350.5" y1="519.1" x2="391.9" y2="518.9"/>
			<line id="XMLID_50_" class="st42" x1="298.4" y1="519.3" x2="337.4" y2="519.1"/>
		</g>
		<g id="XMLID_65_">
			<line id="XMLID_58_" class="st8" x1="356.1" y1="540.4" x2="364.7" y2="540.4"/>
			<line id="XMLID_70_" class="st40" x1="321.7" y1="540.5" x2="341" y2="540.5"/>
			<line id="XMLID_67_" class="st39" x1="276.1" y1="540.7" x2="307.2" y2="540.6"/>
		</g>
		<g id="XMLID_73_">
			<line id="XMLID_77_" class="st41" x1="342.8" y1="561.8" x2="398.1" y2="561.6"/>
			<line id="XMLID_74_" class="st42" x1="276.2" y1="562.1" x2="325.8" y2="561.9"/>
		</g>
		<g id="XMLID_80_">
			<line id="XMLID_64_" class="st40" x1="406.8" y1="583" x2="436.9" y2="582.9"/>
			<line id="XMLID_84_" class="st42" x1="342.9" y1="583.2" x2="391" y2="583"/>
			<line id="XMLID_81_" class="st39" x1="298.6" y1="583.3" x2="325.9" y2="583.2"/>
		</g>
		<g id="XMLID_87_">
			<line id="XMLID_95_" class="st8" x1="364.8" y1="604.5" x2="391.1" y2="604.4"/>
			<line id="XMLID_90_" class="st40" x1="298.7" y1="604.7" x2="346.8" y2="604.5"/>
		</g>
		<g id="XMLID_98_">
			<line id="XMLID_71_" class="st8" x1="433" y1="625.6" x2="463" y2="625.5"/>
			<line id="XMLID_102_" class="st41" x1="341.3" y1="625.9" x2="416.8" y2="625.7"/>
			<line id="XMLID_99_" class="st8" x1="276.4" y1="626.1" x2="324.5" y2="626"/>
		</g>
		<line id="XMLID_11_" class="st27" x1="257.4" y1="645" x2="395" y2="646.4"/>
		<line id="XMLID_10_" class="st27" x1="257.3" y1="650.2" x2="395" y2="651.6"/>
		<path id="XMLID_9_" class="st27" d="M396.4,642l-140.5-1.4c0.8,2.1,1.3,4.6,1.2,7.3c0,2.7-0.5,5.2-1.4,7.2l140.5,1.4
			c-0.8-2.1-1.3-4.6-1.2-7.3C395,646.6,395.5,644.1,396.4,642z"/>
	</g>
	<g id="XMLID_222_" class="st3">
		<g id="XMLID_4_" class="st4">
			
				<rect id="XMLID_7_" x="582.2" y="592.1" transform="matrix(0.9943 -0.1064 0.1064 0.9943 -62.173 65.8046)" class="st43" width="6.3" height="46.4"/>
			
				<rect id="XMLID_31_" x="580" y="592.2" transform="matrix(0.9943 -0.1064 0.1064 0.9943 -59.9787 65.4505)" class="st44" width="6.3" height="4.7"/>
			
				<rect id="XMLID_217_" x="580" y="592.2" transform="matrix(0.9943 -0.1064 0.1064 0.9943 -59.9787 65.4505)" class="st31" width="6.3" height="4.7"/>
			
				<rect id="XMLID_22_" x="582.2" y="592.1" transform="matrix(0.9943 -0.1064 0.1064 0.9943 -62.173 65.8046)" class="st31" width="6.3" height="46.4"/>
		</g>
		<g id="XMLID_1_" class="st4">
			
				<rect id="XMLID_218_" x="594" y="600.9" transform="matrix(0.993 0.1182 -0.1182 0.993 77.9543 -66.2084)" class="st45" width="6.3" height="46.4"/>
			
				<rect id="XMLID_214_" x="594" y="600.9" transform="matrix(0.993 0.1182 -0.1182 0.993 77.9543 -66.2084)" class="st31" width="6.3" height="46.4"/>
			
				<rect id="XMLID_220_" x="596.5" y="601.1" transform="matrix(0.993 0.1182 -0.1182 0.993 75.5245 -66.6447)" class="st32" width="6.3" height="4.7"/>
			
				<rect id="XMLID_211_" x="596.5" y="601.1" transform="matrix(0.993 0.1182 -0.1182 0.993 75.5245 -66.6447)" class="st31" width="6.3" height="4.7"/>
		</g>
		<polygon id="XMLID_26_" class="st46" points="606.2,662.7 581.1,662.4 577.4,623.9 610.7,624.3 		"/>
		<polygon id="XMLID_233_" class="st46" points="577.4,623.9 577.5,624.6 602.8,624.9 598.4,662.6 606.2,662.7 610.7,624.3 		"/>
		<polygon id="XMLID_21_" class="st19" points="606.2,662.7 581.1,662.4 577.4,623.9 610.7,624.3 		"/>
	</g>
</g>
<g id="XMLID_221_">
	<path id="XMLID_273_" class="st5" d="M466.1,310.7H269.7c-4.1,0-7.4-3.3-7.4-7.4V166.5c0-4.1,3.3-7.4,7.4-7.4h196.4
		c4.1,0,7.4,3.3,7.4,7.4v136.8C473.5,307.4,470.2,310.7,466.1,310.7z"/>
	<path id="XMLID_271_" class="st6" d="M473.5,183.7H262.3v-17.2c0-4.1,3.3-7.4,7.4-7.4h196.4c4.1,0,7.4,3.3,7.4,7.4V183.7z"/>
	<path id="XMLID_270_" class="st7" d="M466.1,310.7H269.7c-4.1,0-7.4-3.3-7.4-7.4V166.5c0-4.1,3.3-7.4,7.4-7.4h196.4
		c4.1,0,7.4,3.3,7.4,7.4v136.8C473.5,307.4,470.2,310.7,466.1,310.7z"/>
	<path id="XMLID_269_" class="st7" d="M466.1,310.7H269.7c-4.1,0-7.4-3.3-7.4-7.4V166.5c0-4.1,3.3-7.4,7.4-7.4h196.4
		c4.1,0,7.4,3.3,7.4,7.4v136.8C473.5,307.4,470.2,310.7,466.1,310.7z"/>
	<path id="XMLID_268_" class="st7" d="M473.5,183.7H262.3v-17.2c0-4.1,3.3-7.4,7.4-7.4h196.4c4.1,0,7.4,3.3,7.4,7.4V183.7z"/>
	<g id="XMLID_229_">
		<g id="XMLID_265_">
			<line id="XMLID_267_" class="st8" x1="291.5" y1="291.4" x2="315.3" y2="291.4"/>
			<line id="XMLID_266_" class="st8" x1="274.7" y1="291.4" x2="276.3" y2="291.4"/>
		</g>
		<g id="XMLID_262_">
			<line id="XMLID_264_" class="st8" x1="291.5" y1="278.2" x2="351.7" y2="278.2"/>
			<line id="XMLID_263_" class="st8" x1="274.7" y1="278.2" x2="276.3" y2="278.2"/>
		</g>
		<g id="XMLID_257_">
			<line id="XMLID_261_" class="st9" x1="380.4" y1="265.1" x2="396.8" y2="265.1"/>
			<line id="XMLID_260_" class="st8" x1="335.5" y1="265.1" x2="366" y2="265.1"/>
			<line id="XMLID_259_" class="st10" x1="291.5" y1="265.1" x2="321.6" y2="265.1"/>
			<line id="XMLID_258_" class="st8" x1="274.7" y1="265.1" x2="276.3" y2="265.1"/>
		</g>
		<g id="XMLID_253_">
			<line id="XMLID_256_" class="st8" x1="342.3" y1="251.9" x2="415.7" y2="251.9"/>
			<line id="XMLID_255_" class="st9" x1="291.5" y1="251.9" x2="329.8" y2="251.9"/>
			<line id="XMLID_254_" class="st8" x1="274.7" y1="251.9" x2="276.3" y2="251.9"/>
		</g>
		<g id="XMLID_249_">
			<line id="XMLID_252_" class="st10" x1="342.3" y1="238.8" x2="369.7" y2="238.8"/>
			<line id="XMLID_251_" class="st11" x1="291.5" y1="238.8" x2="329.8" y2="238.8"/>
			<line id="XMLID_250_" class="st8" x1="274.7" y1="238.8" x2="276.3" y2="238.8"/>
		</g>
		<g id="XMLID_243_">
			<line id="XMLID_248_" class="st9" x1="347.6" y1="225.6" x2="355" y2="225.6"/>
			<line id="XMLID_247_" class="st10" x1="318.5" y1="225.6" x2="335.5" y2="225.6"/>
			<line id="XMLID_245_" class="st12" x1="291.5" y1="225.6" x2="305.4" y2="225.6"/>
			<line id="XMLID_244_" class="st8" x1="274.7" y1="225.6" x2="276.3" y2="225.6"/>
		</g>
		<g id="XMLID_237_">
			<line id="XMLID_242_" class="st9" x1="402.5" y1="212.4" x2="415.7" y2="212.4"/>
			<line id="XMLID_241_" class="st10" x1="333.7" y1="212.4" x2="385.7" y2="212.4"/>
			<line id="XMLID_240_" class="st11" x1="291.5" y1="212.4" x2="322.4" y2="212.4"/>
			<line id="XMLID_239_" class="st8" x1="274.7" y1="212.4" x2="276.3" y2="212.4"/>
		</g>
		<g id="XMLID_230_">
			<line id="XMLID_236_" class="st11" x1="369.7" y1="199.3" x2="396.8" y2="199.3"/>
			<line id="XMLID_235_" class="st13" x1="335.5" y1="199.3" x2="356.6" y2="199.3"/>
			<line id="XMLID_234_" class="st11" x1="312.6" y1="199.3" x2="324.5" y2="199.3"/>
			<line id="XMLID_232_" class="st13" x1="291.5" y1="199.3" x2="301.1" y2="199.3"/>
			<line id="XMLID_231_" class="st8" x1="274.7" y1="199.3" x2="276.3" y2="199.3"/>
		</g>
	</g>
	<g id="XMLID_225_">
		<circle id="XMLID_228_" class="st14" cx="283.2" cy="171.4" r="3.9"/>
		<circle id="XMLID_227_" class="st5" cx="297" cy="171.4" r="3.9"/>
		<circle id="XMLID_226_" class="st5" cx="310.8" cy="171.4" r="3.9"/>
	</g>
</g>
<g>
	<g id="XMLID_309_" class="st47">
		<path id="XMLID_312_" class="st48" d="M573.8,263.5l-0.1-5.7c-0.2-9.9,7.7-18.1,17.7-18.3l97.7-1.8c9.9-0.2,18.1,7.7,18.3,17.7
			l0.1,5.7c0.2,9.9-7.7,18.1-17.7,18.3l-97.7,1.8C582.2,281.3,574,273.4,573.8,263.5z"/>
		<path id="XMLID_311_" class="st48" d="M583.3,266l-3.4-4.5c-6-7.9-4.4-19.2,3.5-25.2l78-58.9c7.9-6,19.2-4.4,25.2,3.5l3.4,4.5
			c6,7.9,4.4,19.2-3.5,25.2l-78,58.9C600.6,275.5,589.3,273.9,583.3,266z"/>
		<path id="XMLID_310_" class="st48" d="M578.6,266l-2-5.3c-3.6-9.3,1.1-19.7,10.3-23.3l91.2-35.1c9.3-3.6,19.7,1.1,23.3,10.3l2,5.3
			c3.6,9.3-1.1,19.7-10.3,23.3l-91.2,35.1C592.6,279.9,582.2,275.3,578.6,266z"/>
	</g>
	<g id="XMLID_219_">
		<g id="XMLID_298_">
			<path id="XMLID_308_" class="st23" d="M578.1,257.6l-0.1-5.7c-0.2-9.9,7.7-18.1,17.7-18.3l97.7-1.8c9.9-0.2,18.1,7.7,18.3,17.7
				l0.1,5.7c0.2,9.9-7.7,18.1-17.7,18.3l-97.7,1.8C586.5,275.4,578.3,267.5,578.1,257.6z"/>
			<path id="XMLID_307_" class="st49" d="M578.1,257.6l-0.1-5.7c-0.2-9.9,7.7-18.1,17.7-18.3l97.7-1.8c9.9-0.2,18.1,7.7,18.3,17.7
				l0.1,5.7c0.2,9.9-7.7,18.1-17.7,18.3l-97.7,1.8C586.5,275.4,578.3,267.5,578.1,257.6z"/>
			<path id="XMLID_306_" class="st49" d="M626.2,274.7l-0.8-41.7l68-1.3c9.9-0.2,18.1,7.7,18.3,17.7l0.1,5.7
				c0.2,9.9-7.7,18.1-17.7,18.3L626.2,274.7z"/>
			<path id="XMLID_305_" class="st50" d="M683.5,273.6l-0.8-41.7l10.7-0.2c9.9-0.2,18.1,7.7,18.3,17.7l0.1,5.7
				c0.2,9.9-7.7,18.1-17.7,18.3L683.5,273.6z"/>
			<path id="XMLID_304_" class="st49" d="M683.5,273.6l-0.8-41.7l10.7-0.2c9.9-0.2,18.1,7.7,18.3,17.7l0.1,5.7
				c0.2,9.9-7.7,18.1-17.7,18.3L683.5,273.6z"/>
			
				<rect id="XMLID_303_" x="619.3" y="239.2" transform="matrix(1.860081e-02 0.9998 -0.9998 1.860081e-02 881.7355 -391.1651)" class="st51" width="41.7" height="28.7"/>
			
				<rect id="XMLID_302_" x="647.9" y="238.7" transform="matrix(1.860081e-02 0.9998 -0.9998 1.860081e-02 909.3283 -420.3424)" class="st52" width="41.7" height="28.7"/>
			
				<rect id="XMLID_301_" x="647.9" y="238.7" transform="matrix(1.860081e-02 0.9998 -0.9998 1.860081e-02 909.3283 -420.3424)" class="st49" width="41.7" height="28.7"/>
			
				<rect id="XMLID_300_" x="619.3" y="239.2" transform="matrix(1.860081e-02 0.9998 -0.9998 1.860081e-02 881.7355 -391.1651)" class="st49" width="41.7" height="28.7"/>
			<circle id="XMLID_299_" class="st49" cx="587.8" cy="243.8" r="3.5"/>
		</g>
		<path id="XMLID_297_" class="st53" d="M711.8,225l-9.4-24.3c-1.6-4-6.1-6-10.1-4.5l-110.2,42.5c-4,1.6-6,6.1-4.5,10.1l14.8,17.4
			c0.1,0.2,1.2,1.8,1.3,2l1.3,1.7l2.3,2.4c2.4,2.6,6.2,3.5,9.6,2.2l100.5-39.3C711.3,233.6,713.3,229,711.8,225z"/>
		<g id="XMLID_287_">
			<path id="XMLID_296_" class="st23" d="M582.9,260.1l-2-5.3c-3.6-9.3,1.1-19.7,10.3-23.3l91.2-35.1c9.3-3.6,19.7,1.1,23.3,10.3
				l2,5.3c3.6,9.3-1.1,19.7-10.3,23.3l-91.2,35.1C596.8,274,586.4,269.4,582.9,260.1z"/>
			<path id="XMLID_295_" class="st49" d="M582.9,260.1l-2-5.3c-3.6-9.3,1.1-19.7,10.3-23.3l91.2-35.1c9.3-3.6,19.7,1.1,23.3,10.3
				l2,5.3c3.6,9.3-1.1,19.7-10.3,23.3l-91.2,35.1C596.8,274,586.4,269.4,582.9,260.1z"/>
			<path id="XMLID_294_" class="st54" d="M687.4,239.1l-15-38.9l10-3.8c9.3-3.6,19.7,1.1,23.3,10.3l2,5.3
				c3.6,9.3-1.1,19.7-10.3,23.3L687.4,239.1z"/>
			<path id="XMLID_293_" class="st49" d="M633.9,259.7l-15-38.9l63.4-24.4c9.3-3.6,19.7,1.1,23.3,10.3l2,5.3
				c3.6,9.3-1.1,19.7-10.3,23.3L633.9,259.7z"/>
			
				<rect id="XMLID_292_" x="645.7" y="210.5" transform="matrix(0.3594 0.9332 -0.9332 0.3594 636.749 -477.9738)" class="st55" width="41.7" height="28.7"/>
			
				<rect id="XMLID_291_" x="645.7" y="210.5" transform="matrix(0.3594 0.9332 -0.9332 0.3594 636.749 -477.9738)" class="st49" width="41.7" height="28.7"/>
			
				<rect id="XMLID_290_" x="618.9" y="220.8" transform="matrix(0.3594 0.9332 -0.9332 0.3594 629.2295 -446.4136)" class="st56" width="41.7" height="28.7"/>
			
				<rect id="XMLID_289_" x="618.9" y="220.8" transform="matrix(0.3594 0.9332 -0.9332 0.3594 629.2295 -446.4136)" class="st49" width="41.7" height="28.7"/>
			<circle id="XMLID_288_" class="st49" cx="587.3" cy="243.9" r="3.5"/>
		</g>
		<path id="XMLID_286_" class="st53" d="M588.3,263.9l-3.4-4.5c-6-7.9-4.4-19.2,3.5-25.2l78-58.9c7.9-6,19.2-4.4,25.2,3.5l3.4,4.5
			c6,7.9,4.4,19.2-3.5,25.2l-78,58.9C605.5,273.4,594.2,271.8,588.3,263.9z"/>
		<g id="XMLID_275_">
			<path id="XMLID_285_" class="st23" d="M587.6,260l-3.4-4.5c-6-7.9-4.4-19.2,3.5-25.2l78-58.9c7.9-6,19.2-4.4,25.2,3.5l3.4,4.5
				c6,7.9,4.4,19.2-3.5,25.2l-78,58.9C604.8,269.5,593.5,268,587.6,260z"/>
			<path id="XMLID_284_" class="st49" d="M587.6,260l-3.4-4.5c-6-7.9-4.4-19.2,3.5-25.2l78-58.9c7.9-6,19.2-4.4,25.2,3.5l3.4,4.5
				c6,7.9,4.4,19.2-3.5,25.2l-78,58.9C604.8,269.5,593.5,268,587.6,260z"/>
			<path id="XMLID_283_" class="st49" d="M636.5,245.6l-25.1-33.3l54.3-41c7.9-6,19.2-4.4,25.2,3.5l3.4,4.5c6,7.9,4.4,19.2-3.5,25.2
				L636.5,245.6z"/>
			<path id="XMLID_282_" class="st57" d="M682.3,211.1l-25.1-33.3l8.5-6.4c7.9-6,19.2-4.4,25.2,3.5l3.4,4.5c6,7.9,4.4,19.2-3.5,25.2
				L682.3,211.1z"/>
			<path id="XMLID_281_" class="st49" d="M682.3,211.1l-25.1-33.3l8.5-6.4c7.9-6,19.2-4.4,25.2,3.5l3.4,4.5c6,7.9,4.4,19.2-3.5,25.2
				L682.3,211.1z"/>
			
				<rect id="XMLID_280_" x="637.4" y="188.7" transform="matrix(0.6027 0.7979 -0.7979 0.6027 423.5386 -444.587)" class="st58" width="41.7" height="28.7"/>
			
				<rect id="XMLID_279_" x="637.4" y="188.7" transform="matrix(0.6027 0.7979 -0.7979 0.6027 423.5386 -444.587)" class="st59" width="41.7" height="28.7"/>
			
				<rect id="XMLID_278_" x="614.5" y="206" transform="matrix(0.6027 0.7979 -0.7979 0.6027 428.238 -419.4729)" class="st60" width="41.7" height="28.7"/>
			
				<rect id="XMLID_277_" x="614.5" y="206" transform="matrix(0.6027 0.7979 -0.7979 0.6027 428.238 -419.4729)" class="st49" width="41.7" height="28.7"/>
			<circle id="XMLID_276_" class="st49" cx="587.3" cy="243.2" r="3.5"/>
			<g>
				<path class="st61" d="M609.3,221.6l-0.4-0.6l-1,0.8l-0.2-0.3l2.4-1.8l0.7,0.9c0.5,0.7,0.5,1.2,0.1,1.5
					C610.4,222.4,609.9,222.3,609.3,221.6z M609.5,221.4c0.4,0.5,0.7,0.5,1,0.3c0.3-0.2,0.3-0.6,0-1l-0.4-0.6l-1,0.7L609.5,221.4z"
					/>
				<path class="st61" d="M611.3,225.2l-1-1.3l-0.8,0.2l-0.2-0.3l3.1-0.7l0.2,0.3l-1.5,2.8l-0.2-0.3L611.3,225.2z M612.3,223.4
					l-1.7,0.4l0.9,1.2L612.3,223.4z"/>
				<path class="st61" d="M615.6,227.1l-2.4,1.8l-0.2-0.3l0.8-3.1l-2,1.5l-0.2-0.3l2.4-1.8l0.2,0.3l-0.8,3.1l2-1.5L615.6,227.1z"/>
				<path class="st61" d="M616,227.6l1.5,1.9l-0.2,0.1l-0.6-0.8l-2.2,1.6l-0.2-0.3l2.2-1.6l-0.6-0.8L616,227.6z"/>
				<path class="st61" d="M616.5,233.2c-0.6-0.8-0.6-1.8,0.1-2.4c0.7-0.5,1.7-0.3,2.3,0.5c0.6,0.8,0.6,1.8-0.1,2.4
					C618.1,234.2,617.1,234,616.5,233.2z M616.7,233c0.5,0.6,1.2,0.9,1.9,0.4c0.6-0.5,0.6-1.3,0.1-1.9c-0.5-0.6-1.2-0.9-1.9-0.4
					C616.2,231.6,616.2,232.4,616.7,233z"/>
				<path class="st61" d="M622.1,235.6l-2.4,1.8l-0.2-0.3l0.8-3.1l-2,1.5l-0.2-0.3l2.4-1.8l0.2,0.3l-0.8,3.1l2-1.5L622.1,235.6z"/>
				<path class="st61" d="M623.6,238l-0.9-1.2l-0.9,0.7l0.8,1.1l-0.2,0.1l-0.8-1.1l-0.9,0.7l0.9,1.2l-0.2,0.1l-1.2-1.5l2.4-1.8
					l1.2,1.5L623.6,238z"/>
			</g>
			<g>
				<path class="st61" d="M624.4,238.6l0.4,0.5l-0.1,0.1l-0.2-0.2l-0.7,0.5l-0.1-0.1l0.7-0.5L624.4,238.6L624.4,238.6z"/>
				<path class="st61" d="M624.9,239.3l0.1,0.1l-0.4,0.8l0.9-0.2l0.1,0.1l-0.8,0.6l-0.1-0.1l0.6-0.4l-0.8,0.2l-0.1-0.1l0.4-0.7
					l-0.6,0.4l-0.1-0.1L624.9,239.3z"/>
			</g>
		</g>
	</g>
</g>
<g>
	<g id="XMLID_362_" class="st47">
		<rect id="XMLID_366_" x="663.6" y="411.4" class="st48" width="27.2" height="159.9"/>
		<rect id="XMLID_365_" x="659.9" y="571.2" class="st48" width="34.6" height="19.5"/>
		<path id="XMLID_364_" class="st48" d="M685.5,607.4h-16.6c-2.9,0-5.3-2.4-5.3-5.3v-11.4h27.2v11.4
			C690.8,605.1,688.5,607.4,685.5,607.4z"/>
		<polygon id="XMLID_363_" class="st48" points="690.8,411.4 663.6,411.4 677.2,368.3 		"/>
	</g>
	<g id="XMLID_355_" class="st47">
		<rect id="XMLID_361_" x="750.9" y="472.2" class="st48" width="24.2" height="137.5"/>
		<rect id="XMLID_360_" x="747.4" y="379.4" class="st48" width="31.1" height="92.8"/>
		<path id="XMLID_359_" class="st48" d="M775.1,379.4h-24.2v-8.9c0-2.6,2.1-4.7,4.7-4.7h14.7c2.6,0,4.7,2.1,4.7,4.7V379.4z"/>
		<line id="XMLID_358_" class="st48" x1="738.4" y1="393.9" x2="738.4" y2="451.9"/>
		<line id="XMLID_357_" class="st48" x1="747.4" y1="403.3" x2="738.4" y2="403.3"/>
		<path id="XMLID_356_" class="st48" d="M772.2,609.7c0,5.1-4.1,9.2-9.2,9.2c-5.1,0-9.2-4.1-9.2-9.2H772.2z"/>
	</g>
	<g id="XMLID_340_">
		<rect id="XMLID_354_" x="745.1" y="465.7" class="st62" width="24.2" height="137.5"/>
		<rect id="XMLID_353_" x="760.5" y="465.7" class="st63" width="8.8" height="137.5"/>
		<rect id="XMLID_352_" x="745.1" y="465.7" class="st64" width="8.7" height="137.5"/>
		<rect id="XMLID_351_" x="745.1" y="465.7" class="st49" width="24.2" height="137.5"/>
		<rect id="XMLID_350_" x="741.6" y="372.9" class="st65" width="31.1" height="92.8"/>
		<rect id="XMLID_349_" x="741.6" y="372.9" class="st66" width="9.3" height="92.8"/>
		<rect id="XMLID_348_" x="763" y="372.9" class="st66" width="9.3" height="92.8"/>
		<rect id="XMLID_347_" x="741.6" y="372.9" class="st49" width="31.1" height="92.8"/>
		<path id="XMLID_346_" class="st62" d="M769.3,372.9h-24.2V364c0-2.6,2.1-4.7,4.7-4.7h14.7c2.6,0,4.7,2.1,4.7,4.7V372.9z"/>
		<path id="XMLID_345_" class="st49" d="M769.3,372.9h-24.2V364c0-2.6,2.1-4.7,4.7-4.7h14.7c2.6,0,4.7,2.1,4.7,4.7V372.9z"/>
		<line id="XMLID_344_" class="st49" x1="732.6" y1="387.4" x2="732.6" y2="445.4"/>
		<line id="XMLID_343_" class="st49" x1="741.6" y1="396.8" x2="732.6" y2="396.8"/>
		<path id="XMLID_342_" class="st65" d="M766.4,603.2c0,5.1-4.1,9.2-9.2,9.2s-9.2-4.1-9.2-9.2H766.4z"/>
		<path id="XMLID_341_" class="st49" d="M766.4,603.2c0,5.1-4.1,9.2-9.2,9.2s-9.2-4.1-9.2-9.2H766.4z"/>
	</g>
	<g id="XMLID_327_">
		<rect id="XMLID_339_" x="656.5" y="403.6" class="st67" width="27.2" height="159.9"/>
		<rect id="XMLID_338_" x="656.5" y="403.6" class="st49" width="27.2" height="159.9"/>
		<rect id="XMLID_337_" x="665.3" y="403.6" class="st49" width="9.5" height="159.9"/>
		<rect id="XMLID_336_" x="652.8" y="563.4" class="st68" width="34.6" height="19.5"/>
		<rect id="XMLID_335_" x="677.2" y="563.4" class="st69" width="10.2" height="19.5"/>
		<rect id="XMLID_334_" x="652.8" y="563.4" class="st68" width="9.3" height="19.5"/>
		<rect id="XMLID_333_" x="652.8" y="563.4" class="st49" width="34.6" height="19.5"/>
		<path id="XMLID_332_" class="st70" d="M678.4,599.7h-16.6c-2.9,0-5.3-2.4-5.3-5.3v-11.4h27.2v11.4
			C683.7,597.3,681.3,599.7,678.4,599.7z"/>
		<path id="XMLID_331_" class="st49" d="M678.4,599.7h-16.6c-2.9,0-5.3-2.4-5.3-5.3v-11.4h27.2v11.4
			C683.7,597.3,681.3,599.7,678.4,599.7z"/>
		<polygon id="XMLID_330_" class="st68" points="683.7,403.6 656.5,403.6 670.1,360.5 		"/>
		<polygon id="XMLID_329_" class="st49" points="683.7,403.6 656.5,403.6 670.1,360.5 		"/>
		<polygon id="XMLID_328_" class="st61" points="670.1,360.5 664.3,378.8 675.9,378.8 		"/>
	</g>
	<line id="XMLID_184_" class="st71" x1="754" y1="539" x2="754" y2="591.4"/>
	<g id="XMLID_175_">
		<rect id="XMLID_181_" x="745.1" y="465.7" class="st49" width="24.2" height="137.5"/>
		<rect id="XMLID_180_" x="741.6" y="372.9" class="st49" width="31.1" height="92.8"/>
		<path id="XMLID_179_" class="st49" d="M769.3,372.9h-24.2V364c0-2.6,2.1-4.7,4.7-4.7h14.7c2.6,0,4.7,2.1,4.7,4.7V372.9z"/>
		<line id="XMLID_178_" class="st49" x1="732.6" y1="387.4" x2="732.6" y2="445.4"/>
		<line id="XMLID_177_" class="st49" x1="741.6" y1="396.8" x2="732.6" y2="396.8"/>
		<path id="XMLID_176_" class="st49" d="M766.4,603.2c0,5.1-4.1,9.2-9.2,9.2s-9.2-4.1-9.2-9.2H766.4z"/>
	</g>
</g>
</svg>
